<svg width="24" height="22" viewBox="0 0 24 22" fill="none" xmlns="http://www.w3.org/2000/svg">
<path d="M7.3125 11C7.3125 11.4746 7.73222 11.8594 8.25 11.8594H11.0625V14.4375C11.0625 14.9121 11.4822 15.2969 12 15.2969C12.5178 15.2969 12.9375 14.9121 12.9375 14.4375V11.8594H15.75C16.2678 11.8594 16.6875 11.4746 16.6875 11C16.6875 10.5254 16.2678 10.1406 15.75 10.1406H12.9375V7.5625C12.9375 7.08787 12.5178 6.70312 12 6.70312C11.4822 6.70312 11.0625 7.08787 11.0625 7.5625V10.1406H8.25C7.73222 10.1406 7.3125 10.5254 7.3125 11Z" fill="white"/>
<path d="M7.5191 2.6551L8.73171 2.19465C9.21002 2.01297 9.43723 1.51028 9.23904 1.07179C9.04085 0.63329 8.49251 0.424934 8.0141 0.606735L6.80149 1.06719C6.32318 1.24886 6.09598 1.75155 6.29416 2.19005C6.49169 2.62708 7.03919 2.8372 7.5191 2.6551Z" fill="white"/>
<path d="M12 0C11.4822 0 11.0625 0.384742 11.0625 0.859375C11.0625 1.33401 11.4822 1.71875 12 1.71875C17.5958 1.71875 22.125 5.86987 22.125 11C22.125 16.1295 17.5965 20.2812 12 20.2812C6.40416 20.2812 1.875 16.1301 1.875 11C1.875 10.5254 1.45528 10.1406 0.9375 10.1406C0.419719 10.1406 0 10.5254 0 11C0 17.0793 5.36705 22 12 22C18.632 22 24 17.0802 24 11C24 4.92065 18.633 0 12 0Z" fill="white"/>
<path d="M4.37647 4.86274L5.30454 4.012C5.67068 3.67637 5.67068 3.13221 5.30454 2.79663C4.9384 2.46104 4.34478 2.461 3.97868 2.79663L3.05061 3.64737C2.68447 3.98299 2.68447 4.52715 3.05061 4.86274C3.41665 5.19828 4.01032 5.19837 4.37647 4.86274Z" fill="white"/>
<path d="M1.16966 8.46926C1.64905 8.65127 2.19687 8.44167 2.39459 8.0042L2.8969 6.8926C3.09509 6.45411 2.86789 5.95142 2.38958 5.76974C1.91112 5.58811 1.36283 5.79634 1.16464 6.23479L0.662327 7.34635C0.464139 7.78489 0.691343 8.28758 1.16966 8.46926Z" fill="white"/>
</svg>
