<svg width="17" height="17" viewBox="0 0 17 17" fill="none" xmlns="http://www.w3.org/2000/svg">
<path d="M15.1786 1.82143H13.3571V0.607154C13.3571 0.271827 13.0853 0 12.75 0C12.4147 0 12.1428 0.271827 12.1428 0.607154V1.82143H4.85713V0.607154C4.85713 0.271827 4.5853 0 4.25001 0C3.91472 0 3.64285 0.271827 3.64285 0.607154V1.82143H1.82143C0.81548 1.82143 0 2.63691 0 3.64285V15.1786C0 16.1845 0.81548 17 1.82143 17H15.1786C16.1845 17 17 16.1845 17 15.1786V3.64285C17 2.63691 16.1845 1.82143 15.1786 1.82143ZM15.7857 15.1786C15.7857 15.5139 15.5139 15.7857 15.1785 15.7857H1.82143C1.4861 15.7857 1.21427 15.5139 1.21427 15.1786V7.28571H15.7857V15.1786ZM15.7857 6.07144H1.21427V3.64285C1.21427 3.30753 1.4861 3.0357 1.82143 3.0357H3.64285V4.24997C3.64285 4.5853 3.91468 4.85713 4.25001 4.85713C4.58534 4.85713 4.85716 4.5853 4.85716 4.24997V3.0357H12.1429V4.24997C12.1429 4.5853 12.4147 4.85713 12.75 4.85713C13.0854 4.85713 13.3572 4.5853 13.3572 4.24997V3.0357H15.1786C15.5139 3.0357 15.7858 3.30753 15.7858 3.64285V6.07144H15.7857Z" fill="white"/>
<path d="M12.5573 8.67825C12.322 8.451 11.949 8.451 11.7138 8.67825L7.28584 13.1061L5.2865 11.1068C5.0453 10.8739 4.66095 10.8805 4.42801 11.1217C4.20076 11.357 4.20076 11.73 4.42801 11.9653L6.85659 14.3939C7.0937 14.6309 7.47801 14.6309 7.71508 14.3939L12.5722 9.53674C12.8052 9.29554 12.7985 8.91119 12.5573 8.67825Z" fill="white"/>
</svg>
