<svg width="24" height="24" viewBox="0 0 24 24" fill="none" xmlns="http://www.w3.org/2000/svg">
<path d="M3.70949 16.6794L3.26511 16.235L2.73486 16.7653L3.79049 17.8209L5.17499 15.9751L4.57499 15.5251L3.70949 16.6794Z" fill="#E3E4E9"/>
<path d="M5.625 16.125H8.625V16.875H5.625V16.125Z" fill="#E3E4E9"/>
<path d="M3.70949 18.9294L3.26511 18.485L2.73486 19.0153L3.79049 20.0709L5.17499 18.2251L4.57499 17.7751L3.70949 18.9294Z" fill="#E3E4E9"/>
<path d="M5.625 18.375H8.625V19.125H5.625V18.375Z" fill="#E3E4E9"/>
<path d="M3.70949 21.1794L3.26511 20.735L2.73486 21.2653L3.79049 22.3209L5.17499 20.4751L4.57499 20.0251L3.70949 21.1794Z" fill="#E3E4E9"/>
<path d="M5.625 20.625H8.625V21.375H5.625V20.625Z" fill="#E3E4E9"/>
<path d="M22.875 1.125H13.125C12.7114 1.125 12.375 1.46137 12.375 1.875V5.625H10.875C10.875 2.73 8.52 0.375 5.625 0.375C2.73 0.375 0.375 2.73 0.375 5.625C0.375 8.39325 2.53013 10.6624 5.25 10.8559V13.875H1.875C1.46137 13.875 1.125 14.2114 1.125 14.625V22.875C1.125 23.2886 1.46137 23.625 1.875 23.625H9.375C9.78862 23.625 10.125 23.2886 10.125 22.875V19.875H16.1629C16.3373 20.7296 17.0944 21.375 18 21.375C19.0339 21.375 19.875 20.5339 19.875 19.5C19.875 18.5947 19.2296 17.8372 18.375 17.6629V14.625H22.875C23.2886 14.625 23.625 14.2886 23.625 13.875V1.875C23.625 1.46137 23.2886 1.125 22.875 1.125ZM22.875 1.875V3.375H13.125V1.875H22.875ZM13.125 11.625H17.625V13.875H13.125V11.625ZM13.125 10.875V8.625H17.625V10.875H13.125ZM13.125 7.875V4.125H17.625V7.875H13.125ZM18.375 8.625H22.8754V10.875H18.375V8.625ZM18.375 7.875V4.125H22.875V7.875H18.375ZM1.125 5.625C1.125 3.14363 3.14363 1.125 5.625 1.125C8.10638 1.125 10.125 3.14363 10.125 5.625C10.125 6.89175 9.597 8.03587 8.75138 8.8545C8.40525 8.00587 7.72463 7.341 6.88875 7.0005C7.23038 6.68625 7.45087 6.24937 7.48612 5.7585L7.89675 5.14275C8.12775 4.79625 8.24963 4.39275 8.24963 3.97687C8.25 2.81812 7.30688 1.875 6.14813 1.875H5.10225C3.94313 1.875 3 2.81812 3 3.97687C3 4.39313 3.12188 4.79625 3.35287 5.14275L3.7635 5.7585C3.79875 6.249 4.01925 6.68625 4.36087 7.0005C3.525 7.34062 2.84438 8.00587 2.49825 8.8545C1.653 8.03587 1.125 6.89175 1.125 5.625ZM3.75 3.97687C3.75 3.23137 4.35637 2.625 5.10187 2.625H5.25V3.51825L4.37175 3.95738C4.13812 4.07438 3.95925 4.26375 3.85463 4.49063C3.78788 4.32825 3.75 4.155 3.75 3.97687ZM6 7.533C6.29625 7.57612 6.57713 7.66913 6.8355 7.8045L6 9.1695V7.533ZM7.39538 4.49025C7.29075 4.26338 7.11187 4.074 6.87825 3.957L6 3.51825V2.625H6.14813C6.89363 2.625 7.5 3.23137 7.5 3.97687C7.5 4.155 7.4625 4.32825 7.39538 4.49025ZM4.5 5.625V4.9635C4.5 4.82062 4.5795 4.692 4.70738 4.62825L5.625 4.16925L6.54263 4.62825C6.6705 4.692 6.75 4.82062 6.75 4.9635V5.625C6.75 6.24525 6.24525 6.75 5.625 6.75C5.00475 6.75 4.5 6.24525 4.5 5.625ZM5.25 9.1695L4.4145 7.8045C4.67287 7.66913 4.95375 7.57612 5.25 7.533V9.1695ZM3.80625 8.24738L4.9185 10.0642C4.26262 9.96 3.6525 9.71887 3.12262 9.363C3.25462 8.93025 3.492 8.55075 3.80625 8.24738ZM7.44338 8.247C7.75763 8.55037 7.995 8.92987 8.127 9.36263C7.5975 9.7185 6.987 9.95963 6.33112 10.0639L7.44338 8.247ZM1.875 22.875V14.625H9.375L9.37537 22.875H1.875ZM19.125 19.5C19.125 20.1203 18.6203 20.625 18 20.625C17.3797 20.625 16.875 20.1203 16.875 19.5C16.875 18.8797 17.3797 18.375 18 18.375C18.6203 18.375 19.125 18.8797 19.125 19.5ZM17.625 17.6629C16.8915 17.8125 16.3125 18.3915 16.1629 19.125H10.125V14.625C10.125 14.2114 9.78862 13.875 9.375 13.875H6V10.8559C8.469 10.6804 10.4666 8.793 10.815 6.375H12.375V13.875C12.375 14.2886 12.7114 14.625 13.125 14.625H17.625V17.6629ZM18.375 13.875V11.625H22.8754V13.875H18.375Z" fill="#E3E4E9"/>
<path d="M13.875 4.875H16.875V5.625H13.875V4.875Z" fill="#E3E4E9"/>
<path d="M13.875 6.375H15.375V7.125H13.875V6.375Z" fill="#E3E4E9"/>
<path d="M16.125 6.375H16.875V7.125H16.125V6.375Z" fill="#E3E4E9"/>
<path d="M19.125 4.875H22.125V5.625H19.125V4.875Z" fill="#E3E4E9"/>
<path d="M19.125 6.375H20.625V7.125H19.125V6.375Z" fill="#E3E4E9"/>
<path d="M21.375 6.375H22.125V7.125H21.375V6.375Z" fill="#E3E4E9"/>
<path d="M13.875 9.375H16.875V10.125H13.875V9.375Z" fill="#E3E4E9"/>
<path d="M19.125 9.375H19.875V10.125H19.125V9.375Z" fill="#E3E4E9"/>
<path d="M20.625 9.375H21.375V10.125H20.625V9.375Z" fill="#E3E4E9"/>
<path d="M13.875 12.375H16.875V13.125H13.875V12.375Z" fill="#E3E4E9"/>
<path d="M19.125 12.375H19.875V13.125H19.125V12.375Z" fill="#E3E4E9"/>
<path d="M20.625 12.375H21.375V13.125H20.625V12.375Z" fill="#E3E4E9"/>
</svg>
