<svg width="17" height="23" viewBox="0 0 17 23" fill="none" xmlns="http://www.w3.org/2000/svg">
<path d="M15.9145 18.6355C15.7284 18.6355 15.5776 18.7864 15.5776 18.9724V22.1401C15.5776 22.2426 15.4941 22.3261 15.3915 22.3261H13.5804V15.6913C13.5804 15.5052 13.4296 15.3543 13.2435 15.3543C13.0574 15.3543 12.9066 15.5052 12.9066 15.6913V22.3261H9.25962L10.3172 21.1627C10.4328 21.0355 10.4872 20.8544 10.4629 20.6781C10.4625 20.6747 10.4619 20.6713 10.4614 20.6678L9.45408 14.7172L9.72546 14.3087C9.87549 14.4152 9.99108 14.5178 10.2078 14.5178C10.4283 14.5178 10.6344 14.3944 10.7359 14.1913V14.1912L11.7983 12.0619L14.2185 12.9992C14.306 13.0368 15.5775 13.6094 15.5775 15.1212V17.4001C15.5774 17.5862 15.7283 17.737 15.9144 17.737C16.1005 17.737 16.2513 17.5862 16.2513 17.4001V15.1212C16.2513 13.1292 14.5457 12.4051 14.4731 12.3753C14.471 12.3744 14.4688 12.3735 14.4666 12.3727L10.4386 10.8127V9.86803C11.0784 9.37048 11.522 8.63291 11.6333 7.79143C11.9523 7.76897 12.2483 7.64984 12.49 7.44198C12.8057 7.17052 12.9868 6.77543 12.9868 6.3582C12.9868 6.01194 12.8619 5.68131 12.6393 5.42369V4.17562C12.6392 1.8732 10.7661 0 8.46364 0C6.16122 0 4.28807 1.8732 4.28807 4.17562V5.45639C4.06305 5.71141 3.94068 6.02533 3.94068 6.35815C3.94068 6.77552 4.12172 7.17056 4.43747 7.44207C4.67902 7.64984 4.97483 7.76883 5.29373 7.79134C5.40599 8.64858 5.86253 9.41365 6.5568 9.9179V10.8127L2.5331 12.3727C2.53099 12.3735 2.52888 12.3743 2.52677 12.3752C2.45413 12.405 0.748535 13.1291 0.748535 15.1212V22.14C0.748535 22.6141 1.13428 22.9999 1.60843 22.9999H4.81841C5.00448 22.9999 5.15533 22.849 5.15533 22.663C5.15533 22.4769 5.00448 22.326 4.81841 22.326H4.09351V15.6913C4.09351 15.5052 3.94266 15.3543 3.75659 15.3543C3.57053 15.3543 3.41968 15.5052 3.41968 15.6913V22.3261H1.60847C1.50592 22.3261 1.42245 22.2427 1.42245 22.1401V15.1212C1.42245 13.6042 2.70241 13.033 2.78103 12.9994L5.19935 12.0618L6.26184 14.1912C6.3635 14.3949 6.56992 14.5178 6.78994 14.5178C7.00561 14.5178 7.12008 14.4168 7.27232 14.3087L7.54369 14.7172L6.5365 20.6679C6.53591 20.6712 6.53542 20.6746 6.53492 20.678C6.51058 20.8543 6.56507 21.0355 6.68065 21.1627L7.73825 22.3262H6.39081C6.20475 22.3262 6.0539 22.477 6.0539 22.6631C6.0539 22.8492 6.20475 23 6.39081 23H15.3916C15.8657 23 16.2515 22.6142 16.2515 22.1401V18.9725C16.2514 18.7864 16.1005 18.6355 15.9145 18.6355ZM11.1672 11.8176L10.1767 13.8027C10.1521 13.7852 9.62717 13.4122 8.9855 12.9566C9.26393 12.6129 8.9382 13.0149 10.2089 11.4465L11.1672 11.8176ZM9.1757 13.9183L8.91884 14.3049H8.07866L7.8218 13.9183L8.49877 13.4375L9.1757 13.9183ZM7.23058 10.9215V10.2909C7.63991 10.4559 8.07736 10.5324 8.50457 10.5324C8.94629 10.5324 9.37947 10.4383 9.76472 10.2698V10.9242L8.49877 12.4868L7.23058 10.9215ZM12.313 6.3582C12.3129 6.5789 12.2173 6.78774 12.0507 6.93109C11.9405 7.02587 11.8074 7.08647 11.6616 7.11019V5.60634C12.0488 5.66923 12.313 5.99042 12.313 6.3582ZM5.26588 7.11019C4.87425 7.04663 4.61451 6.72283 4.61451 6.35815C4.61451 5.99797 4.91311 5.70481 5.26588 5.62328V7.11019ZM5.28398 4.93673C5.17666 4.94904 5.05367 4.97811 4.96198 5.00928V4.17562C4.96198 2.24475 6.53281 0.673873 8.46369 0.673873C10.3946 0.673873 11.9654 2.24475 11.9654 4.17562V4.98615C11.8675 4.95637 11.7659 4.93669 11.6616 4.92744C11.6616 4.60234 11.6645 4.66505 10.6009 3.52165C10.4053 3.31151 10.0818 3.26748 9.8356 3.42835C8.66179 4.19512 7.22991 4.58032 5.90876 4.48545C5.61897 4.46375 5.355 4.65462 5.28398 4.93673ZM5.93975 7.37545V5.27347V5.16274C7.3941 5.24791 8.91888 4.81585 10.1507 4.02698C10.6384 4.55068 10.9026 4.82537 10.9878 4.92986C10.9878 5.19418 10.9878 7.07286 10.9878 7.37541C10.9878 8.74314 9.87253 9.85851 8.50461 9.85851C6.96855 9.85855 5.93975 8.66696 5.93975 7.37545ZM6.8209 13.8027L5.83041 11.8176L6.78694 11.4471L8.01065 12.9576C7.38835 13.3995 6.87736 13.7625 6.8209 13.8027ZM7.20745 20.7405L8.18266 14.9787H8.81475L9.78996 20.7405L8.49873 22.1611L7.20745 20.7405Z" fill="white"/>
</svg>
