<svg width="20" height="22" viewBox="0 0 20 22" fill="none" xmlns="http://www.w3.org/2000/svg">
<path d="M18.9637 0H1.03633C0.20047 0 -0.290876 0.935104 0.188046 1.61554C0.197266 1.62852 -0.0957401 1.23244 7.0287 10.8586C7.18852 11.0881 7.27297 11.3567 7.27297 11.6358V20.9133C7.27297 21.8154 8.31483 22.313 9.02131 21.7824L12.058 19.5101C12.477 19.2012 12.7271 18.7079 12.7271 18.1897V11.6358C12.7271 11.3567 12.8115 11.0881 12.9713 10.8586C20.0903 1.23983 19.8028 1.62843 19.812 1.61554C20.2907 0.935405 19.7999 0 18.9637 0V0ZM11.9198 10.1022C11.6254 10.4999 11.4285 11.0545 11.4285 11.6358V18.1896C11.4285 18.3019 11.3742 18.4088 11.2832 18.4756C11.2033 18.534 11.8088 18.0823 8.57156 20.5046V11.6358C8.57156 11.089 8.40478 10.563 8.08927 10.1147C8.08143 10.1036 8.30128 10.4008 3.62461 4.08197H16.3754L11.9198 10.1022ZM17.3294 2.7929H2.67061L1.55759 1.28903H18.4425L17.3294 2.7929Z" fill="white"/>
</svg>
