<svg width="21" height="21" viewBox="0 0 21 21" fill="none" xmlns="http://www.w3.org/2000/svg">
<g clip-path="url(#clip0_598_519)">
<path d="M20.6151 2.76232C20.5751 2.67858 20.5035 2.61416 20.416 2.58305L13.1559 0.0200877C12.9737 -0.044341 12.7737 0.0513621 12.7093 0.23354L11.0601 4.90009H10.3388V3.71013C10.3388 3.38439 10.1875 3.07712 9.92947 2.87836C9.67124 2.67961 9.3356 2.61193 9.02063 2.69516L0.610889 4.91171V4.91804C0.458447 4.95632 0.351294 5.09287 0.350098 5.25009V19.9501C0.350098 20.53 0.820239 21.0001 1.4001 21.0001H11.2001C11.78 21.0001 12.2501 20.53 12.2501 19.9501V16.7743L15.0571 17.7652C15.2395 17.8294 15.4394 17.7339 15.5037 17.5515L20.6301 3.02978C20.6609 2.94211 20.6554 2.84589 20.6151 2.76232ZM9.19922 3.37021C9.30415 3.34252 9.41626 3.36508 9.50222 3.43122C9.58835 3.49753 9.63877 3.60007 9.63877 3.70876V4.90009H3.39893L9.19922 3.37021ZM11.5501 19.9501C11.5501 20.1434 11.3934 20.3001 11.2001 20.3001H1.4001C1.20681 20.3001 1.0501 20.1434 1.0501 19.9501V5.60009H11.2001C11.3934 5.60009 11.5501 5.75681 11.5501 5.95009V19.9501ZM14.4272 6.93259L14.8751 6.72016L15.0885 7.16672L13.3879 11.9796C13.3572 12.0671 13.3623 12.1633 13.4023 12.247L13.7667 13.0092L13.654 13.3288L12.9598 12.61C12.8836 12.5304 12.7742 12.4916 12.6649 12.5049L12.2501 12.5574V12.0884L12.5487 11.9456C12.6324 11.9056 12.6968 11.834 12.7279 11.7465L13.4279 9.76694L14.4272 6.93259ZM15.0872 9.26877L15.7978 10.4105L15.6763 10.7546L14.826 10.0101L15.0872 9.26877ZM12.2501 10.9967V10.0349L12.5945 10.0206L12.2501 10.9967ZM12.8452 9.30979L12.2501 9.33422V8.86836L13.107 8.56945L12.8452 9.30979ZM14.9599 16.9884L12.2501 16.0319V13.263L12.5781 13.222L13.5452 14.2224C13.6115 14.2901 13.7024 14.3279 13.7971 14.3274C13.822 14.3275 13.847 14.3248 13.8712 14.3193C13.9898 14.2935 14.0864 14.2082 14.1267 14.0939L14.4767 13.1037C14.5077 13.0162 14.5025 12.92 14.4624 12.8364L14.0963 12.0751L14.5752 10.7188L15.6035 11.6202C15.6672 11.676 15.7492 11.707 15.8342 11.707C15.8641 11.707 15.8938 11.703 15.9227 11.6954C16.035 11.666 16.1254 11.5829 16.1642 11.4735L16.5142 10.4833C16.5496 10.383 16.5374 10.2723 16.4812 10.1821L15.3857 8.42214L15.7959 7.26054C15.8268 7.17287 15.8217 7.07666 15.7815 6.99275L15.3546 6.09997C15.2712 5.92548 15.0622 5.85166 14.8877 5.93505L13.9945 6.36213C13.9109 6.40212 13.8465 6.47373 13.8157 6.56123L13.405 7.72419L12.2501 8.12717V5.95009C12.2492 5.58591 12.0592 5.24821 11.7482 5.05869L12.3202 3.43669L12.4485 3.07285L13.2536 0.797847L19.8542 3.12771L14.9599 16.9884Z" fill="white"/>
<path d="M17.7212 5.34377L17.9541 4.68359L18.5543 4.89534L18.3214 5.55552L17.7212 5.34377Z" fill="white"/>
<path d="M12.9207 3.64829L13.1538 2.98828L13.7538 3.2002L13.5207 3.8602L12.9207 3.64829Z" fill="white"/>
<path d="M16.521 4.91995L16.7541 4.25977L17.3541 4.47168L17.121 5.13169L16.521 4.91995Z" fill="white"/>
<path d="M14.1208 4.07212L14.354 3.41211L14.9538 3.62402L14.7207 4.28403L14.1208 4.07212Z" fill="white"/>
<path d="M15.3208 4.49595L15.5539 3.83594L16.1539 4.04785L15.9208 4.70786L15.3208 4.49595Z" fill="white"/>
<path d="M6.13867 7C4.20564 7 2.63867 8.56697 2.63867 10.5C2.63867 12.433 4.20564 14 6.13867 14C8.0717 14 9.63867 12.433 9.63867 10.5C9.63662 8.56799 8.07085 7.00222 6.13867 7ZM8.66609 9.30337L8.1886 9.19844C7.97856 9.15212 7.76853 9.11538 7.55644 9.08359C7.52431 8.87151 7.48655 8.66045 7.44143 8.45144L7.33633 7.97412C7.91892 8.25149 8.38855 8.72078 8.66609 9.30337ZM3.33867 10.5C3.33936 10.357 3.35098 10.2141 3.37371 10.0728L4.23914 9.88015C4.37192 9.85076 4.50557 9.82632 4.63955 9.80325C4.60571 10.2671 4.60571 10.7329 4.63955 11.1969C4.50557 11.1739 4.37192 11.1492 4.23914 11.1198L3.37371 10.9274C3.35098 10.7861 3.33936 10.6432 3.33867 10.5ZM5.3498 9.71147C5.87446 9.66465 6.4022 9.66465 6.92685 9.71147C6.97385 10.2361 6.97385 10.7639 6.92685 11.2885C6.4022 11.3355 5.87446 11.3355 5.3498 11.2885C5.30281 10.7639 5.30281 10.2361 5.3498 9.71147ZM7.63625 9.80325C7.77041 9.82632 7.90405 9.85076 8.03667 9.88015L8.90227 10.0728C8.9508 10.3556 8.9508 10.6446 8.90227 10.9274L8.03667 11.1198C7.90405 11.1492 7.77041 11.1739 7.63625 11.1973C7.67026 10.7331 7.67026 10.2672 7.63625 9.80325ZM6.56575 7.73503L6.75818 8.60098C6.78757 8.73359 6.81235 8.86724 6.83559 9.00139C6.37143 8.96738 5.90557 8.96738 5.44141 9.00139C5.46465 8.86724 5.48909 8.73359 5.51882 8.60098L5.71125 7.73503C5.99409 7.68701 6.28291 7.68701 6.56575 7.73503ZM4.9417 7.97156L4.8366 8.44905C4.79045 8.65908 4.75371 8.86912 4.72192 9.0812C4.50984 9.11299 4.29878 9.1511 4.08977 9.19587L3.61228 9.30098C3.89016 8.7189 4.35945 8.24995 4.9417 7.97275V7.97156ZM3.6116 11.6956L4.08909 11.8007C4.29912 11.8469 4.50898 11.8836 4.72124 11.9154C4.75303 12.1275 4.79114 12.3385 4.83591 12.5475L4.94101 13.0249C4.35842 12.7478 3.88896 12.2789 3.61091 11.6966L3.6116 11.6956ZM5.7116 13.2629L5.51916 12.397C5.48943 12.2647 5.46499 12.1307 5.44175 11.9969C5.67349 12.0138 5.90625 12.0253 6.13901 12.0253C6.37178 12.0253 6.60386 12.0138 6.83594 11.9969C6.81269 12.1307 6.78791 12.2647 6.75852 12.397L6.56609 13.2629C6.28325 13.3109 5.99443 13.3109 5.7116 13.2629ZM7.33564 13.0264L7.44074 12.5489C7.48723 12.3389 7.52363 12.129 7.55576 11.9167C7.7675 11.885 7.9789 11.8469 8.18791 11.8021L8.66523 11.697C8.38786 12.2801 7.91823 12.7499 7.3353 13.0274L7.33564 13.0264Z" fill="white"/>
<path d="M3.33862 16.7998H8.93862V17.4998H3.33862V16.7998Z" fill="white"/>
<path d="M4.03857 18.2002H8.23858V18.9002H4.03857V18.2002Z" fill="white"/>
<path d="M5.78857 15.4004H6.48858V16.1004H5.78857V15.4004Z" fill="white"/>
<path d="M4.38867 15.4004H5.08867V16.1004H4.38867V15.4004Z" fill="white"/>
<path d="M7.18872 15.4004H7.88872V16.1004H7.18872V15.4004Z" fill="white"/>
</g>
<defs>
<clipPath id="clip0_598_519">
<rect width="21" height="21" fill="white"/>
</clipPath>
</defs>
</svg>
