<svg width="24" height="24" viewBox="0 0 24 24" fill="none" xmlns="http://www.w3.org/2000/svg">
<path d="M1.5 21.375V2.625C1.5 2.32663 1.61853 2.04048 1.8295 1.8295C2.04048 1.61853 2.32663 1.5 2.625 1.5H14.25V3.375C14.25 3.67337 14.3685 3.95952 14.5795 4.1705C14.7905 4.38147 15.0766 4.5 15.375 4.5H17.25V12H18V4.125C18 4.02555 17.9605 3.93018 17.8901 3.85988L14.8901 0.859875C14.8198 0.789544 14.7244 0.750021 14.625 0.75H2.625C2.1279 0.750595 1.65133 0.948331 1.29983 1.29983C0.948331 1.65133 0.750595 2.1279 0.75 2.625V21.375C0.750595 21.8721 0.948331 22.3487 1.29983 22.7002C1.65133 23.0517 2.1279 23.2494 2.625 23.25H14.25V22.5H2.625C2.32663 22.5 2.04048 22.3815 1.8295 22.1705C1.61853 21.9595 1.5 21.6734 1.5 21.375ZM15 3.375V2.03025L16.7197 3.75H15.375C15.2755 3.75 15.1802 3.71049 15.1098 3.64016C15.0395 3.56984 15 3.47446 15 3.375Z" fill="#E3E4E9"/>
<path d="M12.3751 7.49995C12.3752 7.10165 12.2959 6.70733 12.142 6.33999C11.988 5.97265 11.7625 5.63964 11.4785 5.36039C11.1945 5.08114 10.8577 4.86123 10.4878 4.7135C10.1179 4.56577 9.72235 4.49317 9.32412 4.49995C8.55905 4.52104 7.83022 4.83053 7.28374 5.36637C6.73726 5.90222 6.4135 6.62482 6.37737 7.38932C6.36264 7.80531 6.43458 8.21981 6.58862 8.6065C6.74265 8.9932 6.97541 9.34364 7.27212 9.63557C7.61274 9.96317 7.82198 10.4039 7.86049 10.8749H7.12512V11.6249H7.87512V12.3749C7.87512 12.5739 7.95413 12.7646 8.09479 12.9053C8.23544 13.0459 8.4262 13.1249 8.62512 13.1249H10.1251C10.324 13.1249 10.5148 13.0459 10.6554 12.9053C10.7961 12.7646 10.8751 12.5739 10.8751 12.3749V11.6249H11.6251V10.8749H10.889C10.9207 10.4155 11.121 9.98401 11.4515 9.66332C11.7447 9.38469 11.9779 9.04906 12.1368 8.67704C12.2956 8.30501 12.3767 7.90445 12.3751 7.49995ZM8.62512 12.3749V11.6249H10.1251V12.3749H8.62512ZM10.1289 10.8749H8.62137C8.57907 10.2009 8.28453 9.56752 7.79637 9.10082C7.57234 8.8831 7.39675 8.62056 7.28109 8.33036C7.16542 8.04017 7.11228 7.72883 7.12512 7.4167C7.14145 6.9809 7.28408 6.55924 7.53566 6.20301C7.78723 5.84678 8.13691 5.57135 8.54215 5.4102C8.94739 5.24906 9.39073 5.20916 9.81823 5.29535C10.2457 5.38154 10.639 5.59012 10.9501 5.8957C11.1647 6.10649 11.3347 6.35825 11.4502 6.63602C11.5656 6.9138 11.6241 7.21193 11.6221 7.51272C11.6201 7.81351 11.5577 8.11084 11.4386 8.38706C11.3195 8.66328 11.1461 8.91276 10.9287 9.1207C10.4495 9.58302 10.1637 10.21 10.1289 10.8749Z" fill="#E3E4E9"/>
<path d="M9.375 7.875C9.27554 7.875 9.18016 7.83549 9.10983 7.76517C9.03951 7.69484 9 7.59946 9 7.5H8.25C8.25096 7.73185 8.32353 7.95774 8.45778 8.14676C8.59203 8.33579 8.78141 8.47872 9 8.556V10.125H9.75V8.556C9.96859 8.47872 10.158 8.33579 10.2922 8.14676C10.4265 7.95774 10.499 7.73185 10.5 7.5H9.75C9.75 7.59946 9.71049 7.69484 9.64017 7.76517C9.56984 7.83549 9.47446 7.875 9.375 7.875Z" fill="#E3E4E9"/>
<path d="M9 3H9.75V3.75H9V3Z" fill="#E3E4E9"/>
<path d="M6.80029 3.78955L7.44979 3.41455L7.82479 4.06405L7.17529 4.43905L6.80029 3.78955Z" fill="#E3E4E9"/>
<path d="M5.29028 5.57568L5.66528 4.92618L6.31478 5.30118L5.93978 5.95068L5.29028 5.57568Z" fill="#E3E4E9"/>
<path d="M4.875 7.125H5.625V7.875H4.875V7.125Z" fill="#E3E4E9"/>
<path d="M5.29028 9.42432L5.93978 9.04932L6.31478 9.69882L5.66528 10.0738L5.29028 9.42432Z" fill="#E3E4E9"/>
<path d="M12.4353 9.70142L12.8103 9.05192L13.4598 9.42692L13.0848 10.0764L12.4353 9.70142Z" fill="#E3E4E9"/>
<path d="M13.125 7.125H13.875V7.875H13.125V7.125Z" fill="#E3E4E9"/>
<path d="M12.4346 5.29883L13.0841 4.92383L13.4591 5.57333L12.8096 5.94833L12.4346 5.29883Z" fill="#E3E4E9"/>
<path d="M10.9258 4.06616L11.3008 3.41666L11.9503 3.79166L11.5753 4.44116L10.9258 4.06616Z" fill="#E3E4E9"/>
<path d="M22.9282 16.8787L21.9225 16.7351C21.8545 16.5236 21.7694 16.3181 21.6679 16.1205L22.2772 15.3082C22.3314 15.236 22.3577 15.1467 22.3513 15.0567C22.3449 14.9666 22.3062 14.8819 22.2424 14.8181L21.1819 13.7576C21.1181 13.6939 21.0334 13.6553 20.9435 13.6489C20.8536 13.6425 20.7643 13.6687 20.6921 13.7228L19.8795 14.3317C19.6819 14.2304 19.4763 14.1454 19.2649 14.0775L19.1213 13.0718C19.1084 12.9824 19.0638 12.9007 18.9956 12.8416C18.9275 12.7825 18.8402 12.75 18.75 12.75H17.25C17.1598 12.75 17.0725 12.7825 17.0044 12.8416C16.9362 12.9007 16.8916 12.9824 16.8787 13.0718L16.7351 14.0775C16.5237 14.1453 16.3181 14.2304 16.1205 14.3317L15.3079 13.7228C15.2357 13.6687 15.1464 13.6425 15.0565 13.6489C14.9666 13.6553 14.8819 13.6939 14.8181 13.7576L13.7576 14.8181C13.6938 14.8819 13.6551 14.9666 13.6487 15.0567C13.6423 15.1467 13.6686 15.236 13.7228 15.3082L14.3321 16.1205C14.2306 16.3181 14.1455 16.5236 14.0775 16.7351L13.0718 16.8787C12.9824 16.8916 12.9007 16.9362 12.8416 17.0044C12.7825 17.0725 12.75 17.1598 12.75 17.25V18.75C12.75 18.8402 12.7825 18.9275 12.8416 18.9956C12.9007 19.0638 12.9824 19.1084 13.0718 19.1213L14.0775 19.2649C14.1455 19.4764 14.2306 19.6819 14.3321 19.8795L13.7228 20.6918C13.6686 20.764 13.6423 20.8533 13.6487 20.9433C13.6551 21.0334 13.6938 21.1181 13.7576 21.1819L14.8181 22.2424C14.8819 22.3061 14.9666 22.3447 15.0565 22.3511C15.1464 22.3575 15.2357 22.3313 15.3079 22.2772L16.1205 21.6683C16.3181 21.7696 16.5237 21.8547 16.7351 21.9225L16.8787 22.9282C16.8916 23.0176 16.9362 23.0993 17.0044 23.1584C17.0725 23.2175 17.1598 23.25 17.25 23.25H18.75C18.8402 23.25 18.9275 23.2175 18.9956 23.1584C19.0638 23.0993 19.1084 23.0176 19.1213 22.9282L19.2649 21.9225C19.4763 21.8546 19.6819 21.7696 19.8795 21.6683L20.6921 22.2772C20.7643 22.3313 20.8536 22.3575 20.9435 22.3511C21.0334 22.3447 21.1181 22.3061 21.1819 22.2424L22.2424 21.1819C22.3062 21.1181 22.3449 21.0334 22.3513 20.9433C22.3577 20.8533 22.3314 20.764 22.2772 20.6918L21.6679 19.8795C21.7694 19.6819 21.8545 19.4764 21.9225 19.2649L22.9282 19.1213C23.0176 19.1084 23.0993 19.0638 23.1584 18.9956C23.2175 18.9275 23.25 18.8402 23.25 18.75V17.25C23.25 17.1598 23.2175 17.0725 23.1584 17.0044C23.0993 16.9362 23.0176 16.8916 22.9282 16.8787ZM22.5 18.4249L21.5764 18.5569C21.503 18.5674 21.4343 18.5994 21.3791 18.649C21.3239 18.6985 21.2846 18.7633 21.2662 18.8351C21.1871 19.1458 21.0637 19.4434 20.8999 19.719C20.862 19.7829 20.8439 19.8566 20.848 19.9308C20.8521 20.005 20.8781 20.0763 20.9227 20.1356L21.4823 20.8819L20.8822 21.4819L20.1356 20.9224C20.0763 20.8779 20.005 20.852 19.9309 20.848C19.8568 20.844 19.7832 20.862 19.7194 20.8999C19.444 21.0637 19.1465 21.1869 18.8359 21.2655C18.7638 21.2838 18.6989 21.3231 18.6492 21.3783C18.5995 21.4336 18.5674 21.5024 18.5569 21.576L18.4249 22.5H17.5751L17.4435 21.5764C17.433 21.5028 17.4009 21.434 17.3512 21.3787C17.3015 21.3234 17.2365 21.2842 17.1645 21.2659C16.8539 21.1872 16.5563 21.0641 16.281 20.9003C16.2172 20.8624 16.1436 20.8443 16.0695 20.8483C15.9954 20.8523 15.9241 20.8782 15.8647 20.9227L15.1181 21.4823L14.5181 20.8822L15.0776 20.136C15.1223 20.0766 15.1483 20.0053 15.1524 19.9312C15.1564 19.857 15.1384 19.7833 15.1005 19.7194C14.9367 19.4438 14.8133 19.1462 14.7341 18.8355C14.7157 18.7637 14.6765 18.6989 14.6213 18.6493C14.5661 18.5998 14.4974 18.5678 14.424 18.5573L13.5 18.4249V17.5751L14.4236 17.4431C14.497 17.4326 14.5657 17.4006 14.6209 17.351C14.6761 17.3015 14.7154 17.2367 14.7338 17.1649C14.8129 16.8542 14.9363 16.5566 15.1001 16.281C15.138 16.2171 15.1561 16.1434 15.152 16.0692C15.1479 15.995 15.1219 15.9237 15.0773 15.8644L14.5178 15.1181L15.1177 14.5181L15.8644 15.0776C15.9237 15.1221 15.995 15.148 16.0691 15.152C16.1432 15.156 16.2168 15.138 16.2806 15.1001C16.556 14.9363 16.8535 14.8131 17.1641 14.7345C17.2362 14.7162 17.3011 14.6769 17.3508 14.6217C17.4005 14.5664 17.4326 14.4976 17.4431 14.424L17.5751 13.5H18.4249L18.5565 14.4236C18.567 14.4972 18.5991 14.566 18.6488 14.6213C18.6985 14.6766 18.7635 14.7158 18.8355 14.7341C19.1461 14.8128 19.4437 14.9359 19.719 15.0997C19.7828 15.1376 19.8564 15.1557 19.9305 15.1517C20.0046 15.1477 20.0759 15.1218 20.1353 15.0773L20.8819 14.5178L21.4819 15.1177L20.9224 15.864C20.8777 15.9234 20.8517 15.9947 20.8476 16.0688C20.8436 16.143 20.8616 16.2167 20.8995 16.2806C21.0633 16.5562 21.1867 16.8538 21.2659 17.1645C21.2843 17.2363 21.3235 17.3011 21.3787 17.3507C21.4339 17.4002 21.5026 17.4322 21.576 17.4427L22.5 17.5751V18.4249Z" fill="#E3E4E9"/>
<path d="M18 15.75C17.555 15.75 17.12 15.882 16.75 16.1292C16.38 16.3764 16.0916 16.7278 15.9213 17.139C15.751 17.5501 15.7064 18.0025 15.7932 18.439C15.8801 18.8754 16.0943 19.2763 16.409 19.591C16.7237 19.9057 17.1246 20.1199 17.561 20.2068C17.9975 20.2936 18.4499 20.249 18.861 20.0787C19.2722 19.9084 19.6236 19.62 19.8708 19.25C20.118 18.88 20.25 18.445 20.25 18C20.2494 17.4034 20.0122 16.8315 19.5903 16.4097C19.1685 15.9878 18.5966 15.7506 18 15.75ZM18 19.5C17.7033 19.5 17.4133 19.412 17.1666 19.2472C16.92 19.0824 16.7277 18.8481 16.6142 18.574C16.5007 18.2999 16.4709 17.9983 16.5288 17.7074C16.5867 17.4164 16.7296 17.1491 16.9393 16.9393C17.1491 16.7296 17.4164 16.5867 17.7074 16.5288C17.9983 16.4709 18.2999 16.5006 18.574 16.6142C18.8481 16.7277 19.0824 16.92 19.2472 17.1666C19.412 17.4133 19.5 17.7033 19.5 18C19.5 18.3978 19.342 18.7794 19.0607 19.0607C18.7794 19.342 18.3978 19.5 18 19.5Z" fill="#E3E4E9"/>
<path d="M17.625 14.25H18.375V15H17.625V14.25Z" fill="#E3E4E9"/>
<path d="M15.0798 15.6099L15.6102 15.0795L16.1405 15.6099L15.6102 16.1402L15.0798 15.6099Z" fill="#E3E4E9"/>
<path d="M14.25 17.625H15V18.375H14.25V17.625Z" fill="#E3E4E9"/>
<path d="M15.0796 20.386L15.6099 19.8557L16.1403 20.386L15.6099 20.9163L15.0796 20.386Z" fill="#E3E4E9"/>
<path d="M17.625 21H18.375V21.75H17.625V21Z" fill="#E3E4E9"/>
<path d="M19.8521 20.3816L20.3824 19.8513L20.9127 20.3816L20.3824 20.9119L19.8521 20.3816Z" fill="#E3E4E9"/>
<path d="M21 17.625H21.75V18.375H21V17.625Z" fill="#E3E4E9"/>
<path d="M19.8528 15.6184L20.3831 15.0881L20.9134 15.6184L20.3831 16.1487L19.8528 15.6184Z" fill="#E3E4E9"/>
<path d="M3 14.625H9.75V15.375H3V14.625Z" fill="#E3E4E9"/>
<path d="M10.5 14.625H12V15.375H10.5V14.625Z" fill="#E3E4E9"/>
<path d="M3 16.125H12V16.875H3V16.125Z" fill="#E3E4E9"/>
<path d="M3 17.625H3.75V18.375H3V17.625Z" fill="#E3E4E9"/>
<path d="M4.5 17.625H12V18.375H4.5V17.625Z" fill="#E3E4E9"/>
<path d="M3 19.125H12V19.875H3V19.125Z" fill="#E3E4E9"/>
</svg>
