<svg width="24" height="24" viewBox="0 0 24 24" fill="none" xmlns="http://www.w3.org/2000/svg">
<path d="M16.029 15.3916C15.4604 15.3916 14.9978 14.9912 14.9978 14.4991C14.9978 14.0069 15.4604 13.6065 16.029 13.6065C16.5977 13.6065 17.0603 14.0069 17.0603 14.4991C17.0603 14.7579 17.2702 14.9678 17.529 14.9678C17.7879 14.9678 17.9978 14.7579 17.9978 14.4991C17.9978 13.6401 17.3578 12.9179 16.4978 12.7218V12.478C16.4978 12.2192 16.2879 12.0093 16.029 12.0093C15.7702 12.0093 15.5603 12.2192 15.5603 12.478V12.7218C14.7003 12.9179 14.0603 13.6401 14.0603 14.4991C14.0603 15.5082 14.9435 16.3291 16.029 16.3291C16.5977 16.3291 17.0603 16.7295 17.0603 17.2217C17.0603 17.7139 16.5977 18.1143 16.029 18.1143C15.4604 18.1143 14.9978 17.7139 14.9978 17.2217C14.9978 16.9629 14.7879 16.753 14.5291 16.753C14.2702 16.753 14.0603 16.9629 14.0603 17.2217C14.0603 18.0807 14.7003 18.803 15.5603 18.999V19.2015C15.5603 19.4603 15.7702 19.6702 16.029 19.6702C16.2879 19.6702 16.4978 19.4603 16.4978 19.2015V18.999C17.3578 18.803 17.9978 18.0807 17.9978 17.2217C17.9978 16.2126 17.1146 15.3916 16.029 15.3916Z" fill="#E3E4E9"/>
<path d="M21.1631 12.6036C20.5508 11.6495 19.6881 10.886 18.6683 10.3958C18.4349 10.2836 18.1549 10.3818 18.0427 10.6152C17.9306 10.8485 18.0288 11.1285 18.2621 11.2407C20.0392 12.095 21.1874 13.9202 21.1874 15.8907C21.1874 16.7339 20.9795 17.5701 20.5864 18.3091C20.4648 18.5376 20.5515 18.8215 20.78 18.943C20.8502 18.9804 20.9255 18.9981 20.9998 18.9981C21.1675 18.9981 21.3297 18.9078 21.414 18.7494C21.8791 17.8755 22.1249 16.8869 22.1249 15.8907C22.1249 14.7207 21.7923 13.5841 21.1631 12.6036Z" fill="#E3E4E9"/>
<path d="M16.7659 9.79692L16.7344 9.79688C16.4755 9.79688 16.2656 10.0067 16.2656 10.2656C16.2656 10.5245 16.4755 10.7344 16.7344 10.7344L16.7615 10.7344C16.7623 10.7344 16.763 10.7344 16.7638 10.7344C17.0216 10.7344 17.2312 10.526 17.2325 10.2679C17.2336 10.009 17.0248 9.79814 16.7659 9.79692Z" fill="#E3E4E9"/>
<path d="M13.8002 20.5406C12.0232 19.6863 10.875 17.861 10.875 15.8905C10.875 15.0473 11.0828 14.2111 11.476 13.4722C11.5976 13.2437 11.5109 12.9598 11.2823 12.8382C11.0539 12.7166 10.7699 12.8033 10.6484 13.0319C10.1833 13.9058 9.9375 14.8943 9.9375 15.8905C9.9375 17.0605 10.2701 18.1972 10.8993 19.1776C11.5116 20.1318 12.3743 20.8953 13.3941 21.3855C13.4595 21.417 13.5287 21.4319 13.5968 21.4319C13.7714 21.4319 13.9389 21.334 14.0196 21.1662C14.1317 20.9328 14.0336 20.6527 13.8002 20.5406Z" fill="#E3E4E9"/>
<path d="M15.3283 21.047L15.3012 21.0469C15.0411 21.0464 14.8315 21.2545 14.8303 21.5134C14.8291 21.7723 15.0381 21.9832 15.2969 21.9844L15.3283 21.9845C15.5872 21.9845 15.7971 21.7746 15.7971 21.5157C15.7971 21.2569 15.5872 21.047 15.3283 21.047Z" fill="#E3E4E9"/>
<path d="M18.1598 8.21099C18.1027 8.07505 18.0328 7.94694 17.9515 7.82811H19.1718C20.3608 7.82811 21.3281 6.8608 21.3281 5.67186C21.3281 4.48293 20.3608 3.51562 19.1718 3.51562H15.4181C15.6567 3.16865 15.7968 2.74889 15.7968 2.29687C15.7968 1.10794 14.8295 0.140625 13.6406 0.140625H2.15625C0.967311 0.140625 0 1.10794 0 2.29687C0 3.48581 0.967311 4.45312 2.15625 4.45312H5.90999C5.67135 4.80009 5.53124 5.21985 5.53124 5.67186C5.53124 6.12388 5.6713 6.54364 5.90999 6.89061H4.68749C3.49856 6.89061 2.53125 7.85792 2.53125 9.04686C2.53125 9.72969 2.85065 10.339 3.34757 10.7344C2.85065 11.1297 2.53125 11.739 2.53125 12.4219C2.53125 13.1047 2.85065 13.714 3.34757 14.1093C2.85065 14.5047 2.53125 15.114 2.53125 15.7968C2.53125 16.4797 2.85065 17.089 3.34757 17.4843C2.85065 17.8797 2.53125 18.489 2.53125 19.1718C2.53125 20.3608 3.49856 21.3281 4.68749 21.3281H10.2117C11.667 22.8847 13.7373 23.8594 16.0313 23.8594C20.4252 23.8594 24 20.2846 24 15.8906C24 12.2336 21.5236 9.1445 18.1598 8.21099ZM19.1718 4.45312C19.8439 4.45312 20.3906 4.99987 20.3906 5.67186C20.3906 6.34386 19.8439 6.89061 19.1718 6.89061H16.1718H7.68749C7.01544 6.89061 6.46874 6.34386 6.46874 5.67186C6.46874 4.99987 7.01544 4.45312 7.68749 4.45312H19.1718ZM2.15625 3.51562C1.4842 3.51562 0.937498 2.96887 0.937498 2.29687C0.937498 1.62487 1.4842 1.07812 2.15625 1.07812H13.6406C14.3126 1.07812 14.8593 1.62487 14.8593 2.29687C14.8593 2.96887 14.3126 3.51562 13.6406 3.51562H2.15625ZM4.68749 7.82811H16.1718C16.3607 7.82811 16.5415 7.87199 16.7036 7.95055C16.4819 7.93194 16.2578 7.92191 16.0313 7.92191C13.8307 7.92191 11.8357 8.81858 10.3923 10.2656H4.68749C4.01549 10.2656 3.46874 9.71886 3.46874 9.04686C3.46874 8.37486 4.01549 7.82811 4.68749 7.82811ZM4.68749 11.2031H9.59131C9.05919 11.9321 8.64777 12.7544 8.38648 13.6406H4.68749C4.01545 13.6406 3.46874 13.0939 3.46874 12.4219C3.46874 11.7499 4.01545 11.2031 4.68749 11.2031ZM4.68749 14.5781H8.17124C8.10013 15.0053 8.06253 15.4436 8.06253 15.8906C8.06253 16.2725 8.09014 16.648 8.14231 17.0156H4.68749C4.01545 17.0156 3.46874 16.4689 3.46874 15.7968C3.46874 15.1248 4.01545 14.5781 4.68749 14.5781ZM4.68749 20.3906C4.01545 20.3906 3.46874 19.8439 3.46874 19.1718C3.46874 18.4998 4.01545 17.9531 4.68749 17.9531H8.3337C8.57023 18.8349 8.95447 19.6568 9.45837 20.3906H4.68749ZM16.0313 22.9219C12.1542 22.9219 9.00003 19.7677 9.00003 15.8906C9.00003 12.0136 12.1542 8.85941 16.0313 8.85941C19.9083 8.85941 23.0625 12.0136 23.0625 15.8906C23.0625 19.7677 19.9083 22.9219 16.0313 22.9219Z" fill="#E3E4E9"/>
</svg>
