<svg width="24" height="24" viewBox="0 0 24 24" fill="none" xmlns="http://www.w3.org/2000/svg">
<path d="M3.5625 11.25C4.13013 11.25 4.64575 11.0242 5.02533 10.6582L7.09479 11.6929C7.08417 11.7783 7.07812 11.8649 7.07812 11.9531C7.07812 13.1162 8.02441 14.0625 9.1875 14.0625C10.3506 14.0625 11.2969 13.1162 11.2969 11.9531C11.2969 11.6279 11.2227 11.3196 11.0907 11.0442L13.9036 8.23132C14.179 8.36334 14.4873 8.4375 14.8125 8.4375C15.9756 8.4375 16.9219 7.49121 16.9219 6.32812C16.9219 6.1084 16.888 5.89655 16.8254 5.69733L19.2691 3.86462C19.6038 4.0882 20.0056 4.21875 20.4375 4.21875C21.6006 4.21875 22.5469 3.27246 22.5469 2.10938C22.5469 0.946289 21.6006 0 20.4375 0C19.2744 0 18.3281 0.946289 18.3281 2.10938C18.3281 2.3291 18.362 2.54095 18.4246 2.74017L15.9809 4.57288C15.6462 4.3493 15.2444 4.21875 14.8125 4.21875C13.6494 4.21875 12.7031 5.16504 12.7031 6.32812C12.7031 6.65332 12.7773 6.96167 12.9093 7.23706L10.0964 10.0499C9.82104 9.91791 9.5127 9.84375 9.1875 9.84375C8.61987 9.84375 8.10425 10.0695 7.72467 10.4355L5.65521 9.40082C5.66583 9.31549 5.67188 9.22888 5.67188 9.14062C5.67188 7.97754 4.72559 7.03125 3.5625 7.03125C2.39941 7.03125 1.45312 7.97754 1.45312 9.14062C1.45312 10.3037 2.39941 11.25 3.5625 11.25ZM20.4375 1.40625C20.8251 1.40625 21.1406 1.72174 21.1406 2.10938C21.1406 2.49701 20.8251 2.8125 20.4375 2.8125C20.0499 2.8125 19.7344 2.49701 19.7344 2.10938C19.7344 1.72174 20.0499 1.40625 20.4375 1.40625ZM14.8125 5.625C15.2001 5.625 15.5156 5.94049 15.5156 6.32812C15.5156 6.71576 15.2001 7.03125 14.8125 7.03125C14.4249 7.03125 14.1094 6.71576 14.1094 6.32812C14.1094 5.94049 14.4249 5.625 14.8125 5.625ZM9.1875 11.25C9.57513 11.25 9.89062 11.5655 9.89062 11.9531C9.89062 12.3408 9.57513 12.6562 9.1875 12.6562C8.79987 12.6562 8.48438 12.3408 8.48438 11.9531C8.48438 11.5655 8.79987 11.25 9.1875 11.25ZM3.5625 8.4375C3.95013 8.4375 4.26562 8.75299 4.26562 9.14062C4.26562 9.52826 3.95013 9.84375 3.5625 9.84375C3.17487 9.84375 2.85938 9.52826 2.85938 9.14062C2.85938 8.75299 3.17487 8.4375 3.5625 8.4375Z" fill="#E3E4E9"/>
<path d="M23.2969 22.5938H22.5469V7.73438C22.5469 7.34601 22.2321 7.03125 21.8438 7.03125H19.0312C18.6429 7.03125 18.3281 7.34601 18.3281 7.73438V22.5938H16.9219V11.9531C16.9219 11.5648 16.6071 11.25 16.2188 11.25H13.4062C13.0179 11.25 12.7031 11.5648 12.7031 11.9531V22.5938H11.2969V17.5781C11.2969 17.1898 10.9821 16.875 10.5938 16.875H7.78125C7.39288 16.875 7.07812 17.1898 7.07812 17.5781V22.5938H5.67188V14.7656C5.67188 14.3773 5.35712 14.0625 4.96875 14.0625H2.15625C1.76788 14.0625 1.45312 14.3773 1.45312 14.7656V22.5938H0.703125C0.314758 22.5938 0 22.9085 0 23.2969C0 23.6852 0.314758 24 0.703125 24H23.2969C23.6852 24 24 23.6852 24 23.2969C24 22.9085 23.6852 22.5938 23.2969 22.5938ZM19.7344 8.4375H21.1406V22.5938H19.7344V8.4375ZM14.1094 12.6562H15.5156V22.5938H14.1094V12.6562ZM8.48438 18.2812H9.89062V22.5938H8.48438V18.2812ZM2.85938 15.4688H4.26562V22.5938H2.85938V15.4688Z" fill="#E3E4E9"/>
</svg>
