<svg width="111" height="23" viewBox="0 0 111 23" fill="none" xmlns="http://www.w3.org/2000/svg">
<path d="M5.96187 13.0796L14.9553 17.8839L23.9488 13.0796V18.1103L14.9553 22.9147L5.96187 18.1103V13.0796ZM14.9553 0.276367L29.0879 7.82247V17.8839H26.5183V9.19334L14.9553 15.3686L0.822754 7.82247L14.9553 0.276367ZM44.3413 8.36924C44.1351 8.1338 43.8946 7.95161 43.6197 7.82268C43.3448 7.69375 43.0585 7.62929 42.7608 7.62929C42.4515 7.62929 42.1738 7.72458 41.9276 7.91518C41.6813 8.10577 41.5582 8.41968 41.5582 8.85693C41.5582 9.22691 41.6842 9.51559 41.9361 9.72301C42.1881 9.93042 42.5603 10.1574 43.0528 10.4041C43.3277 10.5386 43.6169 10.6984 43.9204 10.8834C44.2239 11.0684 44.5016 11.2954 44.7536 11.5645C45.0055 11.8335 45.2145 12.1559 45.3806 12.5314C45.5467 12.907 45.6297 13.3527 45.6297 13.8684C45.6297 14.5075 45.5266 15.0708 45.3205 15.5585C45.1143 16.0462 44.8366 16.4498 44.4873 16.7693C44.138 17.0889 43.7342 17.3299 43.2761 17.4925C42.818 17.655 42.3427 17.7363 41.8502 17.7363C41.1173 17.7363 40.4501 17.6018 39.8489 17.3327C39.2476 17.0636 38.7637 16.7497 38.3972 16.391L39.8059 14.3729C40.0693 14.642 40.3728 14.8578 40.7164 15.0204C41.06 15.1829 41.4093 15.2642 41.7643 15.2642C42.0965 15.2642 42.3771 15.1577 42.6061 14.9447C42.8352 14.7317 42.9497 14.4346 42.9497 14.0534C42.9497 13.661 42.8123 13.3499 42.5374 13.12C42.2626 12.8902 41.8617 12.6464 41.3349 12.3885C41.0027 12.2315 40.6906 12.0578 40.3986 11.8672C40.1065 11.6766 39.8489 11.4468 39.6255 11.1777C39.4022 10.9086 39.2275 10.5947 39.1016 10.2359C38.9756 9.87716 38.9126 9.45113 38.9126 8.95783C38.9126 8.29636 39.0242 7.72739 39.2476 7.2509C39.4709 6.77442 39.763 6.38483 40.1237 6.08212C40.4845 5.77941 40.8853 5.55519 41.3263 5.40944C41.7672 5.26369 42.211 5.19082 42.6577 5.19082C43.3219 5.19082 43.9175 5.29733 44.4443 5.51034C44.9712 5.72336 45.4121 6.01485 45.7671 6.38483L44.3413 8.36924ZM51.0584 7.79746V17.4168H48.3612V7.79746H46.1279V5.51034H53.2917V7.79746H51.0584ZM59.7511 17.4168L59.2529 15.2474H56.5214L56.0232 17.4168H53.2745L56.2294 5.51034H59.6824L62.6201 17.4168H59.7511ZM57.9301 8.10016H57.8614L56.8306 13.1621H58.9093L57.9301 8.10016ZM71.4159 16.7105C71.0265 17.002 70.5569 17.2374 70.0072 17.4168C69.4574 17.5962 68.8104 17.6859 68.0659 17.6859C67.2986 17.6859 66.6143 17.5345 66.013 17.2318C65.4117 16.9291 64.9021 16.5059 64.484 15.9621C64.066 15.4184 63.7453 14.7653 63.522 14.0029C63.2987 13.2406 63.187 12.3941 63.187 11.4636C63.187 10.533 63.2987 9.68377 63.522 8.91579C63.7453 8.14781 64.0631 7.48634 64.4754 6.93138C64.8877 6.37642 65.3831 5.94759 65.9615 5.64488C66.5398 5.34217 67.184 5.19082 67.8941 5.19082C68.7187 5.19082 69.4088 5.32816 69.9642 5.60284C70.5197 5.87752 70.9578 6.22226 71.2785 6.63708L69.7839 8.60467C69.3715 8.0441 68.8104 7.76382 68.1003 7.76382C67.7223 7.76382 67.3959 7.86192 67.1211 8.05812C66.8462 8.25432 66.6171 8.52059 66.4339 8.85693C66.2506 9.19327 66.1161 9.58566 66.0302 10.0341C65.9443 10.4826 65.9013 10.9591 65.9013 11.4636C65.9013 11.9681 65.9414 12.4446 66.0216 12.893C66.1017 13.3415 66.2306 13.7339 66.4081 14.0702C66.5856 14.4065 66.809 14.6756 67.0781 14.8774C67.3473 15.0792 67.6708 15.1801 68.0487 15.1801C68.461 15.1801 68.7817 15.096 69.0108 14.9279V12.708H67.7052V10.3705H71.4159V16.7105ZM73.3056 17.4168V5.51034H79.181V7.88154H75.9341V10.2191H78.9233V12.439H75.9341V15.012H79.3871V17.4168H73.3056ZM89.8321 17.4168L89.3339 15.2474H86.6024L86.1042 17.4168H83.3555L86.3104 5.51034H89.7634L92.7011 17.4168H89.8321ZM88.0111 8.10016H87.9424L86.9117 13.1621H88.9904L88.0111 8.10016ZM101.274 9.24372C101.274 9.90519 101.171 10.477 100.964 10.9591C100.758 11.4411 100.483 11.8391 100.14 12.1531C99.7962 12.467 99.4068 12.6996 98.9716 12.851C98.5363 13.0023 98.0954 13.078 97.6487 13.078H96.4634V17.4168H93.7662V5.51034H97.5457C97.9809 5.51034 98.4189 5.572 98.8599 5.69533C99.3008 5.81865 99.7017 6.02326 100.062 6.30915C100.423 6.59504 100.715 6.97903 100.939 7.46112C101.162 7.94321 101.274 8.5374 101.274 9.24372ZM98.6967 9.29417C98.6967 8.75602 98.565 8.36924 98.3016 8.1338C98.0381 7.89836 97.7175 7.78064 97.3395 7.78064H96.4634V10.8918H97.3395C97.7175 10.8918 98.0381 10.7545 98.3016 10.4798C98.565 10.2051 98.6967 9.8099 98.6967 9.29417ZM110.241 9.24372C110.241 9.90519 110.138 10.477 109.932 10.9591C109.726 11.4411 109.451 11.8391 109.107 12.1531C108.764 12.467 108.374 12.6996 107.939 12.851C107.504 13.0023 107.063 13.078 106.616 13.078H105.431V17.4168H102.734V5.51034H106.513C106.948 5.51034 107.387 5.572 107.828 5.69533C108.268 5.81865 108.669 6.02326 109.03 6.30915C109.391 6.59504 109.683 6.97903 109.906 7.46112C110.13 7.94321 110.241 8.5374 110.241 9.24372ZM107.664 9.29417C107.664 8.75602 107.533 8.36924 107.269 8.1338C107.006 7.89836 106.685 7.78064 106.307 7.78064H105.431V10.8918H106.307C106.685 10.8918 107.006 10.7545 107.269 10.4798C107.533 10.2051 107.664 9.8099 107.664 9.29417Z" fill="#38B3FF"/>
</svg>
